<?xml version="1.0" standalone="no"?>
<!DOCTYPE svg PUBLIC "-//W3C//DTD SVG 20010904//EN"
 "http://www.w3.org/TR/2001/REC-SVG-20010904/DTD/svg10.dtd">
<svg version="1.0" xmlns="http://www.w3.org/2000/svg"
 width="842.000000pt" height="596.000000pt" viewBox="0 0 842.000000 596.000000"
 preserveAspectRatio="xMidYMid meet">

<g transform="translate(0.000000,596.000000) scale(0.100000,-0.100000)"
fill="#ffffff" stroke="none">
<path d="M2885 4508 c-267 -30 -541 -127 -747 -264 -405 -269 -628 -713 -628
-1249 0 -615 293 -1112 806 -1368 409 -205 966 -240 1414 -91 253 84 487 245
665 457 47 57 48 58 29 76 -71 69 -447 401 -453 401 -4 0 -24 -24 -45 -54 -84
-122 -228 -245 -359 -307 -128 -59 -203 -73 -407 -73 -160 0 -196 3 -265 22
-312 86 -526 303 -615 623 -66 238 -44 552 54 764 112 243 326 415 584 471
110 23 274 28 387 11 216 -33 377 -110 514 -246 l86 -84 217 224 217 224 -52
53 c-125 129 -353 267 -542 330 -114 38 -252 68 -377 81 -114 13 -368 12 -483
-1z"/>
<path d="M5030 2980 l0 -1080 335 0 335 0 0 1080 0 1080 -335 0 -335 0 0
-1080z"/>
<path d="M6340 2980 l0 -1080 335 0 335 0 0 1080 0 1080 -335 0 -335 0 0
-1080z"/>
</g>
</svg>
